# Blender v2.80 (sub 75) OBJ File: 'jwst.blend'
# www.blender.org
v 5.370506 12.527843 0.430442
v -11.764889 -33.642921 16.627117
v -10.535265 -30.329739 22.749119
v -10.515083 -30.275362 10.180117
v -10.535265 -30.329739 10.505117
v -11.728704 -33.545418 29.165119
v -10.498732 -30.231298 23.043118
v -10.498732 -30.231298 35.287117
v -8.075668 -23.702435 22.749119
v -6.846043 -20.389252 16.627117
v -8.039135 -23.603996 23.043118
v -6.809509 -20.290813 29.165119
v -6.714523 -20.034870 16.573116
v -7.944147 -23.348053 22.948116
v -6.714523 -20.034870 16.826117
v -4.254925 -13.407567 16.826117
v -3.024952 -10.093448 22.948116
v -7.966415 -23.408054 35.535118
v -6.736790 -20.094872 41.657116
v -4.254925 -13.407567 29.070118
v -8.039135 -23.603996 35.287117
v -6.736790 -20.094872 29.413116
v -4.277195 -13.467568 29.413116
v 5.702713 13.422958 1.924343
v 5.337498 12.438904 0.499422
v -10.135994 -29.253920 -0.573638
v -9.982012 -28.839016 -1.312024
v 7.067429 17.100151 35.286118
v 8.297401 20.414272 29.164116
v 7.067429 17.100151 23.042118
v -9.331768 -27.086956 -0.051289
v -10.210073 -29.453526 -0.218470
v -11.744707 -33.588543 4.058117
v -9.248343 -26.862167 -2.063883
v -6.714523 -20.034870 29.070118
v -2.951538 -9.895631 23.089119
v -4.181160 -13.208814 29.211117
v -2.956409 -9.908755 47.839115
v -2.342991 -8.255916 47.839115
v -4.277195 -13.467568 41.657116
v -4.186382 -13.222878 41.717117
v -3.047222 -10.153447 35.535118
v -2.956409 -9.908755 35.595116
v 3.378212 7.159668 29.164116
v 4.571648 10.375347 22.896118
v 4.607834 10.472847 23.042118
v 7.031246 17.002647 22.896118
v 8.260872 20.315834 16.774117
v -2.342991 -8.255916 45.176323
v -1.789066 -6.763389 41.979599
v -2.951538 -9.895631 35.333118
v 3.303402 6.958103 29.416119
v 3.283222 6.903725 29.183117
v 4.512848 10.216908 23.061119
v 4.607834 10.472847 35.286118
v 4.533375 10.272221 35.538116
v 3.303402 6.958103 41.660118
v 0.843803 0.330795 41.660118
v 0.843803 0.330795 29.416119
v 0.738029 0.045793 29.211117
v -8.971718 -26.116817 -1.485367
v -9.322317 -27.061491 -0.088960
v 0.732811 0.031728 41.717117
v -0.496811 -3.281453 35.595116
v -1.173210 -5.103986 41.979599
v -0.865280 -4.274283 45.176323
v -1.173210 -5.103986 45.176323
v -1.789066 -6.763389 45.770473
v -1.941116 -7.173083 45.176323
v -0.385818 -2.982387 35.538116
v -0.491940 -3.268329 35.333118
v -0.491940 -3.268329 23.089119
v 0.823624 0.276421 29.183117
v 3.341675 7.061226 16.774117
v -0.496811 -3.281453 47.839115
v -0.865280 -4.274283 47.839115
v 4.571648 10.375347 10.652118
v 3.283222 6.903725 16.939117
v 3.356293 7.100601 -8.015882
v 4.586262 10.414722 -1.893882
v -4.234745 -13.353191 3.985117
v -4.168983 -13.176002 4.301117
v -4.104263 -13.001623 -8.316883
v -2.874641 -9.688441 -14.437882
v -0.415043 -3.061137 -14.437882
v -4.234745 -13.353191 -8.258883
v -2.874641 -9.688441 -2.194882
v -3.004772 -10.039071 -2.136882
v -0.406349 -3.037700 23.061119
v -2.939358 -9.862819 -1.820882
v 0.814926 0.252983 -8.316883
v -0.415047 -3.061137 -2.194882
v 0.896694 0.473301 -8.015883
v -0.332932 -2.839885 -1.893882
v 3.283222 6.903725 16.686117
v -0.479763 -3.235515 -1.820882
v 0.823624 0.276421 16.686115
v 0.823624 0.276421 16.939117
v 0.750210 0.078605 4.301117
v -1.718433 -6.573073 10.423118
v 0.896694 0.473301 4.227118
v 0.823627 0.276421 4.442118
v -0.406345 -3.037700 10.564117
v 4.637409 10.552540 -1.694882
v 3.356289 7.100601 4.227118
v -0.479763 -3.235515 10.423118
v -3.024952 -10.093448 10.451118
v -2.939358 -9.862819 10.423118
v -4.254925 -13.407567 4.329117
v 4.512848 10.216908 10.564117
v -4.254925 -13.407567 16.573116
v -7.944145 -23.348053 10.451117
v 7.055695 17.068523 0.500843
v 6.642735 15.955818 -0.040071
v 7.097008 17.179844 10.549118
v 4.637409 10.552540 10.549118
v 8.326630 20.493023 4.427118
v 7.160172 17.350037 0.858664
v -7.923965 -23.293678 -2.136883
v -6.693993 -19.979557 -8.258883
v -8.055487 -23.648060 -2.063883
v -6.693993 -19.979557 3.985117
v 7.031246 17.002647 10.652118
v 3.407787 7.239357 4.427117
v 6.379372 15.246193 -1.676864
v 5.691154 13.391823 1.879289
v 3.283222 6.903725 4.442118
v 7.479240 18.209766 0.208176
v -8.971878 -26.117249 -1.485702
v -8.998699 -26.189512 -1.541768
v -6.825516 -20.333939 4.058117
v -8.055487 -23.648060 10.180117
v -8.075668 -23.702435 10.505117
v -6.714520 -20.034870 4.329117
vn 0.9375 -0.3479 0.0000
vn 0.9375 -0.3480 -0.0001
s off
f 3//1 2//1 9//1
f 9//1 2//1 10//1
f 7//1 12//1 6//1
f 11//1 12//1 7//1
f 10//1 2//1 5//1
f 19//1 18//1 23//1
f 22//1 23//1 18//1
f 29//1 28//1 30//1
f 26//1 31//1 32//1
f 8//1 6//1 12//1
f 21//1 8//1 12//1
f 15//1 16//1 14//1
f 35//1 14//1 20//1
f 16//1 17//1 14//1
f 17//1 20//1 14//1
f 42//1 40//1 23//1
f 19//1 23//1 40//1
f 49//1 39//1 38//1
f 41//1 43//1 50//1
f 38//1 41//1 49//1
f 46//1 30//1 44//1
f 28//1 55//1 30//1
f 44//1 30//1 55//1
f 56//1 57//1 52//1
f 43//1 64//1 50//1
f 65//1 63//1 66//1
f 67//1 65//1 66//1
f 68//1 69//1 50//1
f 49//1 50//1 69//1
f 63//1 65//1 64//1
f 58//1 52//1 57//1
f 49//1 41//1 50//1
f 65//1 50//1 64//1
f 36//1 72//1 37//1
f 71//1 37//1 60//1
f 51//1 37//1 71//1
f 58//1 70//1 52//1
f 59//1 52//1 70//1
f 60//1 37//1 72//1
f 74//1 77//1 45//1
f 63//1 75//1 66//1
f 76//1 66//1 75//1
f 83//1 84//1 85//1
f 73//1 89//1 54//1
f 53//1 73//1 54//1
f 85//1 91//1 83//1
f 91//1 92//1 83//1
f 87//1 83//1 92//1
f 78//1 54//1 98//1
f 98//1 54//1 89//1
f 93//1 79//1 94//1
f 99//1 100//1 82//1
f 90//1 96//1 82//1
f 99//1 82//1 96//1
f 94//1 79//1 101//1
f 80//1 105//1 79//1
f 101//1 79//1 105//1
f 95//1 97//1 102//1
f 106//1 100//1 99//1
f 82//1 100//1 108//1
f 102//1 110//1 95//1
f 13//1 112//1 111//1
f 113//1 118//1 24//1
f 118//1 115//1 24//1
f 116//1 24//1 115//1
f 120//1 86//1 119//1
f 88//1 119//1 86//1
f 88//1 81//1 119//1
f 47//1 45//1 77//1
f 123//1 48//1 77//1
f 47//1 77//1 48//1
f 116//1 124//1 24//1
f 114//1 113//1 24//1
f 25//1 126//1 124//1
f 104//1 25//1 124//1
f 126//2 24//2 124//2
f 25//1 104//1 1//1
f 125//1 1//1 104//1
f 110//1 102//1 127//1
f 128//1 117//1 118//1
f 115//1 118//1 117//1
f 33//1 32//1 4//1
f 62//1 61//1 131//1
f 121//1 131//1 61//1
f 61//1 129//1 121//1
f 34//1 121//1 130//1
f 129//1 130//1 121//1
f 31//1 4//1 32//1
f 26//1 27//1 31//1
f 122//1 119//1 81//1
f 4//1 31//1 132//1
f 132//1 31//1 131//1
f 10//1 5//1 133//1
f 107//1 112//1 109//1
f 134//1 109//1 112//1
f 107//1 111//1 112//1
f 103//1 102//1 97//1
