# Blender v2.80 (sub 75) OBJ File: 'jwst.blend'
# www.blender.org
v -4.133472 -5.008877 10.961316
v -2.934326 -1.791434 12.647964
v 7.605328 -12.198916 13.862110
v 8.077621 -11.048480 20.241154
v -5.760929 -9.407552 20.752720
v -6.242146 -10.702722 18.353920
v -4.739704 -6.655913 22.325729
v 5.429474 -13.132360 15.786811
v 5.795521 -12.966494 18.396534
v 8.997566 -8.480210 19.549664
v 8.406231 -10.077308 13.139431
v -2.920853 -1.760105 20.733467
v 8.229492 -6.816771 18.558815
v 8.987965 -8.506092 13.832874
v 8.997570 -8.480209 13.855526
v 7.998810 -6.313752 15.343895
v -5.642872 -9.092443 12.241917
v -6.305584 -10.865568 15.637836
v -2.318703 -0.114771 16.632530
v -3.771564 -4.049363 22.150318
vn 0.3963 -0.9181 0.0028
vn 0.9357 -0.3527 0.0016
vn 0.5913 -0.8002 0.1005
vn 0.9407 -0.3392 -0.0085
vn 0.9378 -0.3472 -0.0000
vn 0.9082 0.4185 0.0003
vn 0.9079 0.4192 0.0000
vn 0.4062 0.5987 0.6903
vn -0.1624 -0.8543 0.4938
vn 0.3734 0.5286 -0.7623
vn -0.1847 -0.9808 0.0631
vn -0.1900 -0.9778 0.0888
vn 0.2519 0.1664 0.9533
vn -0.0257 -0.4889 0.8720
vn -0.0506 -0.6604 0.7492
vn -0.1604 -0.8618 -0.4813
vn -0.1275 -0.8282 -0.5457
vn 0.0367 -0.3346 -0.9416
vn 0.0388 -0.3120 -0.9493
vn 0.2971 0.3541 -0.8867
vn 0.2634 0.3062 -0.9148
vn 0.4225 0.6374 -0.6443
vn 0.4330 0.8050 -0.4056
vn 0.3168 0.4113 0.8547
vn 0.1625 0.0060 0.9867
vn 0.5214 0.8480 0.0953
vn 0.4423 0.8080 0.3891
s off
f 8//1 3//1 9//1
f 11//2 10//2 3//2
f 4//3 9//3 3//3
f 10//4 4//4 3//4
f 14//5 10//5 11//5
f 16//6 13//6 15//6
f 10//7 15//7 13//7
f 10//8 13//8 12//8
f 9//9 5//9 6//9
f 14//10 2//10 15//10
f 18//11 9//11 6//11
f 18//12 8//12 9//12
f 10//13 20//13 4//13
f 5//14 4//14 7//14
f 9//15 4//15 5//15
f 18//16 17//16 8//16
f 17//17 3//17 8//17
f 17//18 11//18 3//18
f 1//19 11//19 17//19
f 1//20 2//20 11//20
f 14//21 11//21 2//21
f 16//22 15//22 2//22
f 19//23 16//23 2//23
f 20//24 10//24 12//24
f 4//25 20//25 7//25
f 19//26 13//26 16//26
f 19//27 12//27 13//27
