# Blender v2.80 (sub 75) OBJ File: 'jwst.blend'
# www.blender.org
v -9.643066 10.060566 15.537118
v -9.643066 10.060566 6.508117
v -18.608120 -14.095482 6.508117
v -18.608120 -14.095482 15.537117
v -9.974945 10.183735 5.447117
v -24.749008 15.859907 16.418118
v -26.172253 16.388119 18.120670
v -9.414148 10.168669 16.418118
v -25.904285 16.095606 14.476116
v -25.572405 15.972435 15.537117
v -25.904285 16.095606 5.447116
v -9.414148 10.168669 34.968109
v -26.172253 16.388119 22.662804
v -34.869339 -8.060441 5.447116
v -34.869339 -8.060441 14.476115
v -35.118130 -7.969175 22.662132
v -35.118130 -7.969175 18.121151
v -33.694664 -8.497467 16.418116
v -18.360027 -14.188625 34.968044
v -18.360027 -14.188625 16.418118
v -18.940001 -13.972311 5.447117
v -34.537460 -8.183613 15.537116
vn 0.3479 0.9375 -0.0000
vn -0.3479 -0.9375 0.0000
s off
f 6//1 7//1 8//1
f 12//1 8//1 13//1
f 11//1 9//1 5//1
f 2//1 10//1 1//1
f 13//1 8//1 7//1
f 16//2 17//2 19//2
f 18//2 19//2 17//2
f 21//2 15//2 14//2
f 22//2 3//2 4//2
f 18//2 20//2 19//2
