# Blender v2.80 (sub 75) OBJ File: 'jwst.blend'
# www.blender.org
v -14.894073 -2.504507 -15.870246
v -19.756973 5.019171 -15.650994
v -16.315222 -0.360526 -28.247028
v -15.797991 -0.468301 -28.841473
v -15.520132 -0.725603 -29.124840
v -15.705654 -0.465921 -29.168076
v -15.079506 -0.848515 -16.150375
v -14.376335 -1.109482 -31.429703
v -18.581478 3.609650 -34.687004
v -14.980362 -2.737009 -31.429703
v -17.764729 0.173534 -15.958787
v -16.294001 -0.249562 -29.767273
v -16.280247 -0.263283 -28.528767
v -16.436394 -0.326468 -28.282135
v -16.213526 -0.427645 -30.044693
v -16.328243 -0.385069 -30.079311
v -17.806767 0.149659 -34.664524
v -16.150368 -2.402195 -28.430382
v -16.049946 -2.342702 -28.661343
v -15.952263 -2.384617 -29.168037
v -17.785152 -1.763413 -28.440243
v -16.081720 -2.355274 -29.717297
v -17.014732 -2.234787 -29.163883
v -16.414165 -2.060102 -30.270206
v -16.066010 -2.334093 -29.722809
v -15.998243 -2.359243 -16.181572
v -18.414581 -1.448059 -34.122238
v -18.490164 -1.488638 -15.955285
v -23.056705 -3.870322 -15.650947
v -17.885881 -1.544584 -29.188877
v -17.932621 -1.641335 -29.163883
v -17.564562 -1.968863 -29.163883
v -17.492390 -2.003418 -29.483582
v -17.788807 -1.565047 -28.845886
v -17.798531 -1.691100 -29.722809
v -17.793306 -1.714373 -29.714882
v -19.555508 -2.906706 -34.787804
v -21.141033 -1.412766 -38.616413
v -24.796741 -1.783518 -37.389050
v -22.978138 -3.639256 -34.790558
v -26.271973 -1.074076 -34.695679
v -23.299614 1.190090 -39.256310
v -24.450253 4.504963 -15.277930
v -25.331921 3.819393 -14.062219
v -26.227612 2.363041 -13.408315
v -26.498917 0.674963 -14.062219
v -25.882830 3.272038 -34.689758
v -18.489740 0.323490 -37.312077
v -19.520157 3.631189 -37.257729
v -20.670883 1.648592 -38.995113
v -22.689306 4.440317 -37.526711
v -25.755327 1.689665 -37.621620
v -23.009682 5.191311 -34.692410
v -20.651295 4.920620 -34.692883
v -20.594389 4.947496 -34.692883
v -26.277718 -0.419208 -15.277934
vn 0.7596 0.1154 0.6400
vn 0.4124 0.9110 -0.0054
vn 0.3151 0.9491 -0.0017
vn 0.9364 -0.3475 0.0490
vn 0.9939 0.1101 -0.0072
vn 0.3392 0.9407 0.0067
vn -0.3556 0.9345 0.0143
vn 0.4614 0.8766 0.1368
vn 0.5436 0.7703 0.3334
vn 0.7687 0.4785 -0.4245
vn 0.5890 0.7469 -0.3086
vn 0.3464 0.9381 -0.0023
vn 0.3558 0.9346 0.0014
vn 0.9867 0.1273 0.1012
vn 0.2731 0.9619 -0.0096
vn 0.3651 0.9306 0.0262
vn 0.9031 0.3487 -0.2505
vn 0.3488 0.9372 -0.0032
vn -0.2974 -0.9050 -0.3043
vn 0.7579 -0.6172 -0.2116
vn -0.1319 -0.9913 0.0051
vn 0.4222 -0.9052 -0.0496
vn -0.3192 -0.9476 0.0169
vn -0.3625 -0.9319 -0.0106
vn -0.3079 -0.9513 0.0159
vn -0.4979 -0.8598 -0.1137
vn -0.3889 -0.9196 0.0559
vn 0.5548 -0.2059 -0.8061
vn 0.9251 0.3785 0.0291
vn 0.9758 0.2185 -0.0025
vn 0.2607 0.9654 -0.0018
vn -0.7889 -0.6041 -0.1128
vn -0.4321 -0.8935 0.1219
vn -0.9126 -0.3705 -0.1730
vn -0.7883 -0.5859 0.1881
vn -0.3567 -0.9097 0.2128
vn -0.1396 -0.9883 -0.0610
vn -0.2565 -0.9235 -0.2851
vn -0.4257 -0.3759 -0.8231
vn -0.3896 -0.7876 -0.4773
vn -0.7258 -0.6817 0.0923
vn -0.3639 -0.9314 -0.0001
vn -0.6116 -0.7805 -0.1294
vn -0.3292 -0.9442 0.0074
vn -0.3408 -0.9401 -0.0035
vn 0.8848 -0.4543 -0.1037
vn 0.4191 -0.9075 0.0282
vn -0.2636 -0.9645 -0.0164
vn -0.7340 -0.6760 0.0654
vn 0.5222 -0.4455 -0.7272
vn 0.8008 -0.4419 -0.4043
vn 0.7872 -0.6166 0.0019
vn 0.4642 -0.8848 0.0404
vn 0.2093 -0.9778 -0.0109
vn -0.2499 -0.4216 -0.8717
vn 0.1899 -0.8855 -0.4241
vn -0.0941 -0.8401 -0.5341
vn 0.8449 -0.4734 -0.2490
vn 0.6332 -0.5954 -0.4945
vn 0.6767 0.2223 -0.7019
vn 0.5281 -0.1837 -0.8291
vn 0.1221 -0.1403 -0.9826
vn 0.0060 0.4689 -0.8832
vn 0.2131 0.5710 -0.7928
vn -0.5710 -0.2107 -0.7934
vn -0.8729 -0.2682 -0.4075
vn -0.9919 0.0889 -0.0911
vn -0.6057 0.6889 -0.3982
vn -0.5346 0.8000 -0.2724
vn -0.4131 0.4871 -0.7695
vn 0.1039 0.9063 -0.4098
vn 0.2588 0.9406 -0.2200
vn 0.5262 0.8300 -0.1852
vn 0.9497 0.2111 -0.2311
vn 0.9009 0.2860 -0.3265
vn -0.0001 0.0003 -1.0000
vn -0.6146 -0.7887 -0.0120
vn -0.7296 -0.6835 0.0228
vn -0.9787 -0.2052 0.0066
vn -0.9958 0.0892 -0.0185
vn -0.9867 0.1621 -0.0091
vn -0.8500 0.5267 0.0087
vn -0.5554 0.8315 -0.0118
vn -0.6176 0.7865 -0.0044
vn -0.1067 0.9939 0.0272
vn 0.1004 0.9949 -0.0082
vn 0.5534 0.8325 -0.0275
s off
f 4//1 3//1 5//1
f 3//2 7//2 5//2
f 5//3 7//3 8//3
f 8//4 7//4 10//4
f 1//5 10//5 7//5
f 12//6 13//6 6//6
f 13//7 12//7 14//7
f 13//8 4//8 6//8
f 13//9 3//9 4//9
f 6//10 5//10 15//10
f 6//11 15//11 12//11
f 8//12 17//12 15//12
f 11//13 7//13 3//13
f 12//14 11//14 14//14
f 14//15 11//15 3//15
f 15//16 5//16 8//16
f 17//17 12//17 16//17
f 15//18 17//18 16//18
f 22//19 23//19 24//19
f 25//20 20//20 22//20
f 26//21 18//21 1//21
f 1//22 18//22 19//22
f 1//23 19//23 20//23
f 25//24 10//24 20//24
f 1//25 20//25 10//25
f 10//26 25//26 24//26
f 27//27 10//27 24//27
f 10//28 27//28 8//28
f 2//29 11//29 9//29
f 17//30 9//30 11//30
f 12//31 17//31 11//31
f 32//32 30//32 33//32
f 23//33 21//33 32//33
f 21//34 34//34 32//34
f 34//35 30//35 32//35
f 23//36 18//36 21//36
f 23//37 20//37 18//37
f 33//38 24//38 23//38
f 35//39 24//39 36//39
f 36//40 24//40 33//40
f 33//41 30//41 36//41
f 21//42 18//42 28//42
f 40//43 41//43 39//43
f 26//44 28//44 18//44
f 28//45 27//45 31//45
f 30//46 31//46 27//46
f 31//47 34//47 28//47
f 24//48 35//48 27//48
f 35//49 30//49 27//49
f 17//50 8//50 27//50
f 37//51 17//51 27//51
f 37//52 27//52 28//52
f 29//53 37//53 28//53
f 37//54 29//54 40//54
f 38//55 39//55 42//55
f 38//56 37//56 40//56
f 38//57 40//57 39//57
f 17//58 37//58 48//58
f 48//59 37//59 38//59
f 48//60 50//60 49//60
f 38//61 50//61 48//61
f 50//62 38//62 42//62
f 51//63 50//63 42//63
f 51//64 49//64 50//64
f 52//65 42//65 39//65
f 41//66 52//66 39//66
f 41//67 47//67 52//67
f 47//68 51//68 52//68
f 51//69 47//69 53//69
f 52//70 51//70 42//70
f 53//71 54//71 49//71
f 53//72 49//72 51//72
f 54//73 9//73 49//73
f 9//74 17//74 48//74
f 9//75 48//75 49//75
f 55//76 54//76 53//76
f 40//77 29//77 41//77
f 56//78 41//78 29//78
f 46//79 41//79 56//79
f 41//80 46//80 47//80
f 45//81 47//81 46//81
f 45//82 44//82 47//82
f 43//83 53//83 47//83
f 44//84 43//84 47//84
f 43//85 2//85 53//85
f 2//86 55//86 53//86
f 9//87 55//87 2//87
