# Blender v2.80 (sub 75) OBJ File: 'jwst.blend'
# www.blender.org
v 0.426988 -0.472627 -5.119905
v 0.436150 0.554935 -4.615134
v 4.463195 -1.298049 -4.251771
v 4.478717 -0.926192 -2.342685
v 0.417822 -1.876223 -2.189585
v 0.414555 -2.289711 -2.907485
v 0.424441 -0.997867 -1.718823
v 3.946239 -1.782640 -3.675757
v 4.032307 -1.698632 -2.894733
v 4.475549 -0.109758 -2.549630
v 4.472100 -0.619428 -4.468051
v 0.436745 0.565124 -2.195347
v 4.089757 0.279900 -2.846166
v 4.475487 -0.118020 -4.260521
v 4.475549 -0.109758 -4.253742
v 3.973540 0.397892 -3.808311
v 0.418891 -1.775523 -4.736654
v 0.413318 -2.342000 -3.720341
v 0.438315 1.089468 -3.422654
v 0.430928 -0.165746 -1.771319
vn 0.6855 -0.7280 0.0028
vn 0.9999 -0.0126 0.0016
vn 0.8286 -0.5507 0.1005
vn 1.0000 0.0017 -0.0085
vn 1.0000 -0.0068 -0.0000
vn 0.7112 0.7030 0.0003
vn 0.7106 0.7036 0.0000
vn 0.1777 0.7013 0.6903
vn 0.1385 -0.8585 0.4938
vn 0.1709 0.6242 -0.7623
vn 0.1607 -0.9850 0.0631
vn 0.1547 -0.9840 0.0888
vn 0.1801 0.2423 0.9533
vn 0.1425 -0.4684 0.8720
vn 0.1775 -0.6381 0.7492
vn 0.1430 -0.8648 -0.4813
vn 0.1625 -0.8220 -0.5457
vn 0.1486 -0.3021 -0.9416
vn 0.1428 -0.2801 -0.9493
vn 0.1587 0.4342 -0.8867
vn 0.1432 0.3777 -0.9148
vn 0.1800 0.7433 -0.6443
vn 0.1327 0.9044 -0.4056
vn 0.1576 0.4946 0.8547
vn 0.1507 0.0611 0.9867
vn 0.2011 0.9749 0.0953
vn 0.1404 0.9104 0.3891
s off
f 8//1 3//1 9//1
f 11//2 10//2 3//2
f 4//3 9//3 3//3
f 10//4 4//4 3//4
f 14//5 10//5 11//5
f 16//6 13//6 15//6
f 10//7 15//7 13//7
f 10//8 13//8 12//8
f 9//9 5//9 6//9
f 14//10 2//10 15//10
f 18//11 9//11 6//11
f 18//12 8//12 9//12
f 10//13 20//13 4//13
f 5//14 4//14 7//14
f 9//15 4//15 5//15
f 18//16 17//16 8//16
f 17//17 3//17 8//17
f 17//18 11//18 3//18
f 1//19 11//19 17//19
f 1//20 2//20 11//20
f 14//21 11//21 2//21
f 16//22 15//22 2//22
f 19//23 16//23 2//23
f 20//24 10//24 12//24
f 4//25 20//25 7//25
f 19//26 13//26 16//26
f 19//27 12//27 13//27
